<svg width="35" height="34" viewBox="0 0 35 34" fill="none" xmlns="http://www.w3.org/2000/svg">
<g clip-path="url(#clip0_852_402)">
<path d="M17.3158 0C7.92703 0 0.315796 7.61124 0.315796 17C0.315796 24.9723 5.80476 31.6622 13.2093 33.4995V22.1952H9.70388V17H13.2093V14.7614C13.2093 8.97532 15.828 6.2934 21.5087 6.2934C22.5858 6.2934 24.4442 6.50488 25.2045 6.71568V11.4247C24.8033 11.3825 24.1063 11.3614 23.2406 11.3614C20.4533 11.3614 19.3762 12.4175 19.3762 15.1626V17H24.9291L23.975 22.1952H19.3762V33.8756C27.7939 32.859 34.3165 25.6918 34.3165 17C34.3158 7.61124 26.7046 0 17.3158 0Z" fill="#737373"/>
</g>
<defs>
<clipPath id="clip0_852_402">
<rect width="34" height="34" fill="white" transform="translate(0.315796)"/>
</clipPath>
</defs>
</svg>
