<svg width="35" height="34" viewBox="0 0 35 34" fill="none" xmlns="http://www.w3.org/2000/svg">
<g clip-path="url(#clip0_780_4844)">
<path d="M17.3158 3.06133C21.858 3.06133 22.3959 3.08125 24.1822 3.16094C25.8424 3.23398 26.7388 3.51289 27.3365 3.74531C28.1267 4.05078 28.6978 4.42266 29.2888 5.01367C29.8865 5.61133 30.2517 6.17578 30.5572 6.96602C30.7896 7.56367 31.0685 8.4668 31.1416 10.1203C31.2213 11.9133 31.2412 12.4512 31.2412 16.9867C31.2412 21.5289 31.2213 22.0668 31.1416 23.8531C31.0685 25.5133 30.7896 26.4098 30.5572 27.0074C30.2517 27.7977 29.8799 28.3687 29.2888 28.9598C28.6912 29.5574 28.1267 29.9227 27.3365 30.2281C26.7388 30.4605 25.8357 30.7395 24.1822 30.8125C22.3892 30.8922 21.8513 30.9121 17.3158 30.9121C12.7736 30.9121 12.2357 30.8922 10.4494 30.8125C8.78923 30.7395 7.89275 30.4605 7.29509 30.2281C6.50486 29.9227 5.93376 29.5508 5.34275 28.9598C4.74509 28.3621 4.37986 27.7977 4.07439 27.0074C3.84197 26.4098 3.56306 25.5066 3.49001 23.8531C3.41033 22.0602 3.39041 21.5223 3.39041 16.9867C3.39041 12.4445 3.41033 11.9066 3.49001 10.1203C3.56306 8.46016 3.84197 7.56367 4.07439 6.96602C4.37986 6.17578 4.75173 5.60469 5.34275 5.01367C5.94041 4.41602 6.50486 4.05078 7.29509 3.74531C7.89275 3.51289 8.79587 3.23398 10.4494 3.16094C12.2357 3.08125 12.7736 3.06133 17.3158 3.06133ZM17.3158 0C12.7006 0 12.1228 0.0199219 10.3099 0.0996094C8.50369 0.179297 7.26189 0.471484 6.18611 0.889844C5.06384 1.32812 4.11423 1.90586 3.17126 2.85547C2.22166 3.79844 1.64392 4.74805 1.20564 5.86367C0.78728 6.94609 0.495093 8.18125 0.415405 9.9875C0.335718 11.807 0.315796 12.3848 0.315796 17C0.315796 21.6152 0.335718 22.193 0.415405 24.0059C0.495093 25.8121 0.78728 27.0539 1.20564 28.1297C1.64392 29.252 2.22166 30.2016 3.17126 31.1445C4.11423 32.0875 5.06384 32.6719 6.17947 33.1035C7.26189 33.5219 8.49705 33.8141 10.3033 33.8937C12.1162 33.9734 12.6939 33.9934 17.3092 33.9934C21.9244 33.9934 22.5021 33.9734 24.315 33.8937C26.1213 33.8141 27.3631 33.5219 28.4388 33.1035C29.5545 32.6719 30.5041 32.0875 31.447 31.1445C32.39 30.2016 32.9744 29.252 33.406 28.1363C33.8244 27.0539 34.1166 25.8188 34.1963 24.0125C34.276 22.1996 34.2959 21.6219 34.2959 17.0066C34.2959 12.3914 34.276 11.8137 34.1963 10.0008C34.1166 8.19453 33.8244 6.95273 33.406 5.87695C32.9877 4.74805 32.4099 3.79844 31.4603 2.85547C30.5174 1.9125 29.5678 1.32812 28.4521 0.896484C27.3697 0.478125 26.1345 0.185938 24.3283 0.10625C22.5088 0.0199219 21.931 0 17.3158 0Z" fill="#737373"/>
<path d="M17.3158 8.26758C12.4947 8.26758 8.58337 12.1789 8.58337 17C8.58337 21.8211 12.4947 25.7324 17.3158 25.7324C22.1369 25.7324 26.0482 21.8211 26.0482 17C26.0482 12.1789 22.1369 8.26758 17.3158 8.26758ZM17.3158 22.6645C14.1881 22.6645 11.6513 20.1277 11.6513 17C11.6513 13.8723 14.1881 11.3355 17.3158 11.3355C20.4435 11.3355 22.9802 13.8723 22.9802 17C22.9802 20.1277 20.4435 22.6645 17.3158 22.6645Z" fill="#737373"/>
<path d="M28.4322 7.92222C28.4322 9.05113 27.5158 9.96089 26.3935 9.96089C25.2646 9.96089 24.3549 9.04449 24.3549 7.92222C24.3549 6.79331 25.2713 5.88354 26.3935 5.88354C27.5158 5.88354 28.4322 6.79995 28.4322 7.92222Z" fill="#737373"/>
</g>
<defs>
<clipPath id="clip0_780_4844">
<rect width="34" height="34" fill="white" transform="translate(0.315796)"/>
</clipPath>
</defs>
</svg>
