<svg width="35" height="34" viewBox="0 0 35 34" fill="none" xmlns="http://www.w3.org/2000/svg">
<g clip-path="url(#clip0_780_4848)">
<path d="M31.799 0H2.82595C1.43806 0 0.315796 1.0957 0.315796 2.45039V31.543C0.315796 32.8977 1.43806 34 2.82595 34H31.799C33.1869 34 34.3158 32.8977 34.3158 31.5496V2.45039C34.3158 1.0957 33.1869 0 31.799 0ZM10.4029 28.973H5.35603V12.7434H10.4029V28.973ZM7.87947 10.532C6.25916 10.532 4.95095 9.22383 4.95095 7.61016C4.95095 5.99648 6.25916 4.68828 7.87947 4.68828C9.49314 4.68828 10.8013 5.99648 10.8013 7.61016C10.8013 9.21719 9.49314 10.532 7.87947 10.532ZM29.2888 28.973H24.2486V21.084C24.2486 19.2047 24.2154 16.7809 21.6256 16.7809C19.0025 16.7809 18.6041 18.8328 18.6041 20.9512V28.973H13.5705V12.7434H18.4049V14.9613H18.4713C19.142 13.6863 20.7888 12.3383 23.2392 12.3383C28.3459 12.3383 29.2888 15.6984 29.2888 20.068V28.973Z" fill="#737373"/>
</g>
<defs>
<clipPath id="clip0_780_4848">
<rect width="34" height="34" fill="white" transform="translate(0.315796)"/>
</clipPath>
</defs>
</svg>
