<svg width="35" height="34" viewBox="0 0 35 34" fill="none" xmlns="http://www.w3.org/2000/svg">
<path d="M25.3797 15.7583C25.2332 15.6881 25.0845 15.6206 24.9338 15.5559C24.6713 10.7203 22.0291 7.95193 17.5924 7.92359C17.5723 7.92347 17.5523 7.92347 17.5322 7.92347C14.8785 7.92347 12.6715 9.0562 11.313 11.1174L13.7531 12.7912C14.7679 11.2516 16.3605 10.9233 17.5334 10.9233C17.5469 10.9233 17.5605 10.9234 17.5739 10.9235C19.0348 10.9328 20.1371 11.3575 20.8506 12.1858C21.3698 12.7888 21.717 13.6221 21.889 14.6738C20.5938 14.4537 19.1931 14.386 17.6956 14.4718C13.4775 14.7148 10.7657 17.1749 10.9478 20.5934C11.0402 22.3274 11.9041 23.8191 13.3801 24.7936C14.6281 25.6174 16.2354 26.0203 17.9059 25.9291C20.112 25.8081 21.8426 24.9664 23.0499 23.4274C23.9669 22.2587 24.5468 20.7441 24.8029 18.8356C25.8542 19.4701 26.6334 20.3051 27.0637 21.3088C27.7954 23.015 27.8381 25.8187 25.5504 28.1045C23.546 30.107 21.1366 30.9733 17.4953 31C13.4561 30.9701 10.4014 29.6747 8.41526 27.1499C6.55543 24.7856 5.59425 21.3708 5.55839 17C5.59425 12.6292 6.55543 9.21428 8.41526 6.85006C10.4014 4.32524 13.4561 3.0299 17.4952 2.99988C21.5637 3.03013 24.6717 4.33171 26.7338 6.86871C27.745 8.11282 28.5073 9.67739 29.0099 11.5016L31.8692 10.7387C31.2601 8.49331 30.3015 6.55841 28.9971 4.95373C26.3534 1.70118 22.487 0.0345575 17.5052 0H17.4853C12.5136 0.0344374 8.69045 1.7074 6.12207 4.97238C3.83656 7.8778 2.65763 11.9205 2.61801 16.988L2.61789 17L2.61801 17.012C2.65763 22.0795 3.83656 26.1223 6.12207 29.0277C8.69045 32.2926 12.5136 33.9656 17.4853 34H17.5052C21.9253 33.9694 25.0409 32.8121 27.6075 30.2478C30.9656 26.8929 30.8645 22.6877 29.7577 20.1062C28.9636 18.255 27.4498 16.7514 25.3797 15.7583ZM17.748 22.9335C15.8992 23.0377 13.9786 22.2078 13.8839 20.4305C13.8137 19.1126 14.8217 17.6421 17.8614 17.4669C18.2095 17.4469 18.5511 17.437 18.8867 17.437C19.9908 17.437 21.0238 17.5443 21.9628 17.7496C21.6126 22.1239 19.558 22.8342 17.748 22.9335Z" fill="#737373"/>
</svg>
